# xmcd CD database file
# Copyright (C) 1995 Ti Kan
#
# Track frame offsets:
#	150
#	17455
#	35175
#	58830
#	75337
#	105047
#	126597
#	139045
#	160092
#	178882
#	195047
#
# Disc length: 2811 seconds
#
# Revision: 1
# Processed by: cddbd v1.4b41PL1 Copyright (c) Steve Scherf et al.
# Submitted via: NotifyCDPlayer(CDDB) 1.07
#
DISCID=840af90b
DTITLE=Midge Marsden - Burning Rain
DYEAR=1900
DGENRE=
TTITLE0=Burning Rain
TTITLE1=Little Ray
TTITLE2=Elle
TTITLE3=Shufflin Sugar
TTITLE4=Muscles
TTITLE5=Struck down by the Blues
TTITLE6=I wanna be loved
TTITLE7=Strangers Girl
TTITLE8=Nadine
TTITLE9=Daylight Robbery
TTITLE10=???
EXTD=
EXTT0=
EXTT1=
EXTT2=
EXTT3=
EXTT4=
EXTT5=
EXTT6=
EXTT7=
EXTT8=
EXTT9=
EXTT10=
PLAYORDER=
